# xmcd
#
# Track frame offsets:
#	150
#	34488
#	98204
#	192470
#	225919
#
# Disc length: 3295 seconds
#
# Revision: 1
# Processed by: cddbd v1.5.2PL0 Copyright (c) Steve Scherf et al.
# Submitted via: audiograbber 1.83.01
#
DISCID=3a0cdd05
DTITLE=Grateful Dead - 78-10-22 Winterland Arena, San Francisco CA
DYEAR=1900
DGENRE=
TTITLE0=I Need A Miracle
TTITLE1=Drums
TTITLE2=Nat Fade Away > Caution Jam > Mojo Working Jam
TTITLE3=Going Down The Road Feeling Bad
TTITLE4=Johnny B Goode
EXTD=
EXTT0=
EXTT1=
EXTT2=
EXTT3=
EXTT4=
PLAYORDER=
